<svg xmlns="http://www.w3.org/2000/svg" width="1200" height="658" viewBox="87.8 197.5 339.9 142.5" preserveAspectRatio="xMidYMid meet"><defs><radialGradient id="cardG" cx="50%" cy="72%" r="82%"><stop offset="0" stop-color="#1a2029"/><stop offset="1" stop-color="#090c13"/></radialGradient><filter id="cardGlow" x="-20%" y="-20%" width="140%" height="140%"><feGaussianBlur stdDeviation="4"/></filter></defs><rect width="620" height="340" fill="url(#cardG)"/><line x1="0" y1="363.2" x2="620" y2="363.2" stroke="rgba(240,231,203,.075)"/><line x1="0" y1="308.2" x2="620" y2="308.2" stroke="rgba(240,231,203,.075)"/><line x1="0" y1="253.2" x2="620" y2="253.2" stroke="rgba(240,231,203,.075)"/><line x1="0" y1="198.2" x2="620" y2="198.2" stroke="rgba(240,231,203,.075)"/><line x1="0" y1="143.2" x2="620" y2="143.2" stroke="rgba(240,231,203,.075)"/><line x1="0" y1="88.2" x2="620" y2="88.2" stroke="rgba(240,231,203,.075)"/><line x1="0" y1="33.2" x2="620" y2="33.2" stroke="rgba(240,231,203,.075)"/><line x1="0" y1="-21.8" x2="620" y2="-21.8" stroke="rgba(240,231,203,.075)"/><line x1="0" y1="-76.8" x2="620" y2="-76.8" stroke="rgba(240,231,203,.075)"/><line x1="0" y1="-131.8" x2="620" y2="-131.8" stroke="rgba(240,231,203,.075)"/><line x1="216.1" y1="363.2" x2="224.1" y2="363.2" stroke="rgba(240,231,203,.16)" stroke-width="1.6"/><line x1="395.9" y1="363.2" x2="403.9" y2="363.2" stroke="rgba(240,231,203,.16)" stroke-width="1.6"/><line x1="31.1" y1="363.2" x2="37.1" y2="363.2" stroke="rgba(240,231,203,.1)" stroke-width="1.4"/><line x1="582.9" y1="363.2" x2="588.9" y2="363.2" stroke="rgba(240,231,203,.1)" stroke-width="1.4"/><line x1="216.1" y1="352.2" x2="224.1" y2="352.2" stroke="rgba(240,231,203,.16)" stroke-width="1.6"/><line x1="395.9" y1="352.2" x2="403.9" y2="352.2" stroke="rgba(240,231,203,.16)" stroke-width="1.6"/><line x1="31.1" y1="352.2" x2="37.1" y2="352.2" stroke="rgba(240,231,203,.1)" stroke-width="1.4"/><line x1="582.9" y1="352.2" x2="588.9" y2="352.2" stroke="rgba(240,231,203,.1)" stroke-width="1.4"/><line x1="216.1" y1="341.2" x2="224.1" y2="341.2" stroke="rgba(240,231,203,.16)" stroke-width="1.6"/><line x1="395.9" y1="341.2" x2="403.9" y2="341.2" stroke="rgba(240,231,203,.16)" stroke-width="1.6"/><line x1="31.1" y1="341.2" x2="37.1" y2="341.2" stroke="rgba(240,231,203,.1)" stroke-width="1.4"/><line x1="582.9" y1="341.2" x2="588.9" y2="341.2" stroke="rgba(240,231,203,.1)" stroke-width="1.4"/><line x1="216.1" y1="330.2" x2="224.1" y2="330.2" stroke="rgba(240,231,203,.16)" stroke-width="1.6"/><line x1="395.9" y1="330.2" x2="403.9" y2="330.2" stroke="rgba(240,231,203,.16)" stroke-width="1.6"/><line x1="31.1" y1="330.2" x2="37.1" y2="330.2" stroke="rgba(240,231,203,.1)" stroke-width="1.4"/><line x1="582.9" y1="330.2" x2="588.9" y2="330.2" stroke="rgba(240,231,203,.1)" stroke-width="1.4"/><line x1="216.1" y1="319.2" x2="224.1" y2="319.2" stroke="rgba(240,231,203,.16)" stroke-width="1.6"/><line x1="395.9" y1="319.2" x2="403.9" y2="319.2" stroke="rgba(240,231,203,.16)" stroke-width="1.6"/><line x1="31.1" y1="319.2" x2="37.1" y2="319.2" stroke="rgba(240,231,203,.1)" stroke-width="1.4"/><line x1="582.9" y1="319.2" x2="588.9" y2="319.2" stroke="rgba(240,231,203,.1)" stroke-width="1.4"/><line x1="216.1" y1="308.2" x2="224.1" y2="308.2" stroke="rgba(240,231,203,.16)" stroke-width="1.6"/><line x1="395.9" y1="308.2" x2="403.9" y2="308.2" stroke="rgba(240,231,203,.16)" stroke-width="1.6"/><line x1="31.1" y1="308.2" x2="37.1" y2="308.2" stroke="rgba(240,231,203,.1)" stroke-width="1.4"/><line x1="582.9" y1="308.2" x2="588.9" y2="308.2" stroke="rgba(240,231,203,.1)" stroke-width="1.4"/><line x1="216.1" y1="297.2" x2="224.1" y2="297.2" stroke="rgba(240,231,203,.16)" stroke-width="1.6"/><line x1="395.9" y1="297.2" x2="403.9" y2="297.2" stroke="rgba(240,231,203,.16)" stroke-width="1.6"/><line x1="31.1" y1="297.2" x2="37.1" y2="297.2" stroke="rgba(240,231,203,.1)" stroke-width="1.4"/><line x1="582.9" y1="297.2" x2="588.9" y2="297.2" stroke="rgba(240,231,203,.1)" stroke-width="1.4"/><line x1="216.1" y1="286.2" x2="224.1" y2="286.2" stroke="rgba(240,231,203,.16)" stroke-width="1.6"/><line x1="395.9" y1="286.2" x2="403.9" y2="286.2" stroke="rgba(240,231,203,.16)" stroke-width="1.6"/><line x1="31.1" y1="286.2" x2="37.1" y2="286.2" stroke="rgba(240,231,203,.1)" stroke-width="1.4"/><line x1="582.9" y1="286.2" x2="588.9" y2="286.2" stroke="rgba(240,231,203,.1)" stroke-width="1.4"/><line x1="216.1" y1="275.2" x2="224.1" y2="275.2" stroke="rgba(240,231,203,.16)" stroke-width="1.6"/><line x1="395.9" y1="275.2" x2="403.9" y2="275.2" stroke="rgba(240,231,203,.16)" stroke-width="1.6"/><line x1="31.1" y1="275.2" x2="37.1" y2="275.2" stroke="rgba(240,231,203,.1)" stroke-width="1.4"/><line x1="582.9" y1="275.2" x2="588.9" y2="275.2" stroke="rgba(240,231,203,.1)" stroke-width="1.4"/><line x1="216.1" y1="264.2" x2="224.1" y2="264.2" stroke="rgba(240,231,203,.16)" stroke-width="1.6"/><line x1="395.9" y1="264.2" x2="403.9" y2="264.2" stroke="rgba(240,231,203,.16)" stroke-width="1.6"/><line x1="31.1" y1="264.2" x2="37.1" y2="264.2" stroke="rgba(240,231,203,.1)" stroke-width="1.4"/><line x1="582.9" y1="264.2" x2="588.9" y2="264.2" stroke="rgba(240,231,203,.1)" stroke-width="1.4"/><line x1="216.1" y1="253.2" x2="224.1" y2="253.2" stroke="rgba(240,231,203,.16)" stroke-width="1.6"/><line x1="395.9" y1="253.2" x2="403.9" y2="253.2" stroke="rgba(240,231,203,.16)" stroke-width="1.6"/><line x1="31.1" y1="253.2" x2="37.1" y2="253.2" stroke="rgba(240,231,203,.1)" stroke-width="1.4"/><line x1="582.9" y1="253.2" x2="588.9" y2="253.2" stroke="rgba(240,231,203,.1)" stroke-width="1.4"/><line x1="216.1" y1="242.2" x2="224.1" y2="242.2" stroke="rgba(240,231,203,.16)" stroke-width="1.6"/><line x1="395.9" y1="242.2" x2="403.9" y2="242.2" stroke="rgba(240,231,203,.16)" stroke-width="1.6"/><line x1="31.1" y1="242.2" x2="37.1" y2="242.2" stroke="rgba(240,231,203,.1)" stroke-width="1.4"/><line x1="582.9" y1="242.2" x2="588.9" y2="242.2" stroke="rgba(240,231,203,.1)" stroke-width="1.4"/><line x1="216.1" y1="231.2" x2="224.1" y2="231.2" stroke="rgba(240,231,203,.16)" stroke-width="1.6"/><line x1="395.9" y1="231.2" x2="403.9" y2="231.2" stroke="rgba(240,231,203,.16)" stroke-width="1.6"/><line x1="31.1" y1="231.2" x2="37.1" y2="231.2" stroke="rgba(240,231,203,.1)" stroke-width="1.4"/><line x1="582.9" y1="231.2" x2="588.9" y2="231.2" stroke="rgba(240,231,203,.1)" stroke-width="1.4"/><line x1="216.1" y1="220.2" x2="224.1" y2="220.2" stroke="rgba(240,231,203,.16)" stroke-width="1.6"/><line x1="395.9" y1="220.2" x2="403.9" y2="220.2" stroke="rgba(240,231,203,.16)" stroke-width="1.6"/><line x1="31.1" y1="220.2" x2="37.1" y2="220.2" stroke="rgba(240,231,203,.1)" stroke-width="1.4"/><line x1="582.9" y1="220.2" x2="588.9" y2="220.2" stroke="rgba(240,231,203,.1)" stroke-width="1.4"/><line x1="216.1" y1="209.2" x2="224.1" y2="209.2" stroke="rgba(240,231,203,.16)" stroke-width="1.6"/><line x1="395.9" y1="209.2" x2="403.9" y2="209.2" stroke="rgba(240,231,203,.16)" stroke-width="1.6"/><line x1="31.1" y1="209.2" x2="37.1" y2="209.2" stroke="rgba(240,231,203,.1)" stroke-width="1.4"/><line x1="582.9" y1="209.2" x2="588.9" y2="209.2" stroke="rgba(240,231,203,.1)" stroke-width="1.4"/><line x1="216.1" y1="198.2" x2="224.1" y2="198.2" stroke="rgba(240,231,203,.16)" stroke-width="1.6"/><line x1="395.9" y1="198.2" x2="403.9" y2="198.2" stroke="rgba(240,231,203,.16)" stroke-width="1.6"/><line x1="31.1" y1="198.2" x2="37.1" y2="198.2" stroke="rgba(240,231,203,.1)" stroke-width="1.4"/><line x1="582.9" y1="198.2" x2="588.9" y2="198.2" stroke="rgba(240,231,203,.1)" stroke-width="1.4"/><line x1="216.1" y1="187.2" x2="224.1" y2="187.2" stroke="rgba(240,231,203,.16)" stroke-width="1.6"/><line x1="395.9" y1="187.2" x2="403.9" y2="187.2" stroke="rgba(240,231,203,.16)" stroke-width="1.6"/><line x1="31.1" y1="187.2" x2="37.1" y2="187.2" stroke="rgba(240,231,203,.1)" stroke-width="1.4"/><line x1="582.9" y1="187.2" x2="588.9" y2="187.2" stroke="rgba(240,231,203,.1)" stroke-width="1.4"/><line x1="216.1" y1="176.2" x2="224.1" y2="176.2" stroke="rgba(240,231,203,.16)" stroke-width="1.6"/><line x1="395.9" y1="176.2" x2="403.9" y2="176.2" stroke="rgba(240,231,203,.16)" stroke-width="1.6"/><line x1="31.1" y1="176.2" x2="37.1" y2="176.2" stroke="rgba(240,231,203,.1)" stroke-width="1.4"/><line x1="582.9" y1="176.2" x2="588.9" y2="176.2" stroke="rgba(240,231,203,.1)" stroke-width="1.4"/><line x1="216.1" y1="165.2" x2="224.1" y2="165.2" stroke="rgba(240,231,203,.16)" stroke-width="1.6"/><line x1="395.9" y1="165.2" x2="403.9" y2="165.2" stroke="rgba(240,231,203,.16)" stroke-width="1.6"/><line x1="31.1" y1="165.2" x2="37.1" y2="165.2" stroke="rgba(240,231,203,.1)" stroke-width="1.4"/><line x1="582.9" y1="165.2" x2="588.9" y2="165.2" stroke="rgba(240,231,203,.1)" stroke-width="1.4"/><line x1="216.1" y1="154.2" x2="224.1" y2="154.2" stroke="rgba(240,231,203,.16)" stroke-width="1.6"/><line x1="395.9" y1="154.2" x2="403.9" y2="154.2" stroke="rgba(240,231,203,.16)" stroke-width="1.6"/><line x1="31.1" y1="154.2" x2="37.1" y2="154.2" stroke="rgba(240,231,203,.1)" stroke-width="1.4"/><line x1="582.9" y1="154.2" x2="588.9" y2="154.2" stroke="rgba(240,231,203,.1)" stroke-width="1.4"/><line x1="216.1" y1="143.2" x2="224.1" y2="143.2" stroke="rgba(240,231,203,.16)" stroke-width="1.6"/><line x1="395.9" y1="143.2" x2="403.9" y2="143.2" stroke="rgba(240,231,203,.16)" stroke-width="1.6"/><line x1="31.1" y1="143.2" x2="37.1" y2="143.2" stroke="rgba(240,231,203,.1)" stroke-width="1.4"/><line x1="582.9" y1="143.2" x2="588.9" y2="143.2" stroke="rgba(240,231,203,.1)" stroke-width="1.4"/><line x1="216.1" y1="132.2" x2="224.1" y2="132.2" stroke="rgba(240,231,203,.16)" stroke-width="1.6"/><line x1="395.9" y1="132.2" x2="403.9" y2="132.2" stroke="rgba(240,231,203,.16)" stroke-width="1.6"/><line x1="31.1" y1="132.2" x2="37.1" y2="132.2" stroke="rgba(240,231,203,.1)" stroke-width="1.4"/><line x1="582.9" y1="132.2" x2="588.9" y2="132.2" stroke="rgba(240,231,203,.1)" stroke-width="1.4"/><line x1="216.1" y1="121.2" x2="224.1" y2="121.2" stroke="rgba(240,231,203,.16)" stroke-width="1.6"/><line x1="395.9" y1="121.2" x2="403.9" y2="121.2" stroke="rgba(240,231,203,.16)" stroke-width="1.6"/><line x1="31.1" y1="121.2" x2="37.1" y2="121.2" stroke="rgba(240,231,203,.1)" stroke-width="1.4"/><line x1="582.9" y1="121.2" x2="588.9" y2="121.2" stroke="rgba(240,231,203,.1)" stroke-width="1.4"/><line x1="216.1" y1="110.2" x2="224.1" y2="110.2" stroke="rgba(240,231,203,.16)" stroke-width="1.6"/><line x1="395.9" y1="110.2" x2="403.9" y2="110.2" stroke="rgba(240,231,203,.16)" stroke-width="1.6"/><line x1="31.1" y1="110.2" x2="37.1" y2="110.2" stroke="rgba(240,231,203,.1)" stroke-width="1.4"/><line x1="582.9" y1="110.2" x2="588.9" y2="110.2" stroke="rgba(240,231,203,.1)" stroke-width="1.4"/><line x1="216.1" y1="99.2" x2="224.1" y2="99.2" stroke="rgba(240,231,203,.16)" stroke-width="1.6"/><line x1="395.9" y1="99.2" x2="403.9" y2="99.2" stroke="rgba(240,231,203,.16)" stroke-width="1.6"/><line x1="31.1" y1="99.2" x2="37.1" y2="99.2" stroke="rgba(240,231,203,.1)" stroke-width="1.4"/><line x1="582.9" y1="99.2" x2="588.9" y2="99.2" stroke="rgba(240,231,203,.1)" stroke-width="1.4"/><line x1="216.1" y1="88.2" x2="224.1" y2="88.2" stroke="rgba(240,231,203,.16)" stroke-width="1.6"/><line x1="395.9" y1="88.2" x2="403.9" y2="88.2" stroke="rgba(240,231,203,.16)" stroke-width="1.6"/><line x1="31.1" y1="88.2" x2="37.1" y2="88.2" stroke="rgba(240,231,203,.1)" stroke-width="1.4"/><line x1="582.9" y1="88.2" x2="588.9" y2="88.2" stroke="rgba(240,231,203,.1)" stroke-width="1.4"/><line x1="216.1" y1="77.2" x2="224.1" y2="77.2" stroke="rgba(240,231,203,.16)" stroke-width="1.6"/><line x1="395.9" y1="77.2" x2="403.9" y2="77.2" stroke="rgba(240,231,203,.16)" stroke-width="1.6"/><line x1="31.1" y1="77.2" x2="37.1" y2="77.2" stroke="rgba(240,231,203,.1)" stroke-width="1.4"/><line x1="582.9" y1="77.2" x2="588.9" y2="77.2" stroke="rgba(240,231,203,.1)" stroke-width="1.4"/><line x1="216.1" y1="66.2" x2="224.1" y2="66.2" stroke="rgba(240,231,203,.16)" stroke-width="1.6"/><line x1="395.9" y1="66.2" x2="403.9" y2="66.2" stroke="rgba(240,231,203,.16)" stroke-width="1.6"/><line x1="31.1" y1="66.2" x2="37.1" y2="66.2" stroke="rgba(240,231,203,.1)" stroke-width="1.4"/><line x1="582.9" y1="66.2" x2="588.9" y2="66.2" stroke="rgba(240,231,203,.1)" stroke-width="1.4"/><line x1="216.1" y1="55.2" x2="224.1" y2="55.2" stroke="rgba(240,231,203,.16)" stroke-width="1.6"/><line x1="395.9" y1="55.2" x2="403.9" y2="55.2" stroke="rgba(240,231,203,.16)" stroke-width="1.6"/><line x1="31.1" y1="55.2" x2="37.1" y2="55.2" stroke="rgba(240,231,203,.1)" stroke-width="1.4"/><line x1="582.9" y1="55.2" x2="588.9" y2="55.2" stroke="rgba(240,231,203,.1)" stroke-width="1.4"/><line x1="216.1" y1="44.2" x2="224.1" y2="44.2" stroke="rgba(240,231,203,.16)" stroke-width="1.6"/><line x1="395.9" y1="44.2" x2="403.9" y2="44.2" stroke="rgba(240,231,203,.16)" stroke-width="1.6"/><line x1="31.1" y1="44.2" x2="37.1" y2="44.2" stroke="rgba(240,231,203,.1)" stroke-width="1.4"/><line x1="582.9" y1="44.2" x2="588.9" y2="44.2" stroke="rgba(240,231,203,.1)" stroke-width="1.4"/><line x1="216.1" y1="33.2" x2="224.1" y2="33.2" stroke="rgba(240,231,203,.16)" stroke-width="1.6"/><line x1="395.9" y1="33.2" x2="403.9" y2="33.2" stroke="rgba(240,231,203,.16)" stroke-width="1.6"/><line x1="31.1" y1="33.2" x2="37.1" y2="33.2" stroke="rgba(240,231,203,.1)" stroke-width="1.4"/><line x1="582.9" y1="33.2" x2="588.9" y2="33.2" stroke="rgba(240,231,203,.1)" stroke-width="1.4"/><line x1="216.1" y1="22.2" x2="224.1" y2="22.2" stroke="rgba(240,231,203,.16)" stroke-width="1.6"/><line x1="395.9" y1="22.2" x2="403.9" y2="22.2" stroke="rgba(240,231,203,.16)" stroke-width="1.6"/><line x1="31.1" y1="22.2" x2="37.1" y2="22.2" stroke="rgba(240,231,203,.1)" stroke-width="1.4"/><line x1="582.9" y1="22.2" x2="588.9" y2="22.2" stroke="rgba(240,231,203,.1)" stroke-width="1.4"/><line x1="216.1" y1="11.2" x2="224.1" y2="11.2" stroke="rgba(240,231,203,.16)" stroke-width="1.6"/><line x1="395.9" y1="11.2" x2="403.9" y2="11.2" stroke="rgba(240,231,203,.16)" stroke-width="1.6"/><line x1="31.1" y1="11.2" x2="37.1" y2="11.2" stroke="rgba(240,231,203,.1)" stroke-width="1.4"/><line x1="582.9" y1="11.2" x2="588.9" y2="11.2" stroke="rgba(240,231,203,.1)" stroke-width="1.4"/><line x1="216.1" y1="0.2" x2="224.1" y2="0.2" stroke="rgba(240,231,203,.16)" stroke-width="1.6"/><line x1="395.9" y1="0.2" x2="403.9" y2="0.2" stroke="rgba(240,231,203,.16)" stroke-width="1.6"/><line x1="31.1" y1="0.2" x2="37.1" y2="0.2" stroke="rgba(240,231,203,.1)" stroke-width="1.4"/><line x1="582.9" y1="0.2" x2="588.9" y2="0.2" stroke="rgba(240,231,203,.1)" stroke-width="1.4"/><line x1="216.1" y1="-10.8" x2="224.1" y2="-10.8" stroke="rgba(240,231,203,.16)" stroke-width="1.6"/><line x1="395.9" y1="-10.8" x2="403.9" y2="-10.8" stroke="rgba(240,231,203,.16)" stroke-width="1.6"/><line x1="31.1" y1="-10.8" x2="37.1" y2="-10.8" stroke="rgba(240,231,203,.1)" stroke-width="1.4"/><line x1="582.9" y1="-10.8" x2="588.9" y2="-10.8" stroke="rgba(240,231,203,.1)" stroke-width="1.4"/><line x1="216.1" y1="-21.8" x2="224.1" y2="-21.8" stroke="rgba(240,231,203,.16)" stroke-width="1.6"/><line x1="395.9" y1="-21.8" x2="403.9" y2="-21.8" stroke="rgba(240,231,203,.16)" stroke-width="1.6"/><line x1="31.1" y1="-21.8" x2="37.1" y2="-21.8" stroke="rgba(240,231,203,.1)" stroke-width="1.4"/><line x1="582.9" y1="-21.8" x2="588.9" y2="-21.8" stroke="rgba(240,231,203,.1)" stroke-width="1.4"/><line x1="216.1" y1="-32.8" x2="224.1" y2="-32.8" stroke="rgba(240,231,203,.16)" stroke-width="1.6"/><line x1="395.9" y1="-32.8" x2="403.9" y2="-32.8" stroke="rgba(240,231,203,.16)" stroke-width="1.6"/><line x1="31.1" y1="-32.8" x2="37.1" y2="-32.8" stroke="rgba(240,231,203,.1)" stroke-width="1.4"/><line x1="582.9" y1="-32.8" x2="588.9" y2="-32.8" stroke="rgba(240,231,203,.1)" stroke-width="1.4"/><line x1="216.1" y1="-43.8" x2="224.1" y2="-43.8" stroke="rgba(240,231,203,.16)" stroke-width="1.6"/><line x1="395.9" y1="-43.8" x2="403.9" y2="-43.8" stroke="rgba(240,231,203,.16)" stroke-width="1.6"/><line x1="31.1" y1="-43.8" x2="37.1" y2="-43.8" stroke="rgba(240,231,203,.1)" stroke-width="1.4"/><line x1="582.9" y1="-43.8" x2="588.9" y2="-43.8" stroke="rgba(240,231,203,.1)" stroke-width="1.4"/><line x1="216.1" y1="-54.8" x2="224.1" y2="-54.8" stroke="rgba(240,231,203,.16)" stroke-width="1.6"/><line x1="395.9" y1="-54.8" x2="403.9" y2="-54.8" stroke="rgba(240,231,203,.16)" stroke-width="1.6"/><line x1="31.1" y1="-54.8" x2="37.1" y2="-54.8" stroke="rgba(240,231,203,.1)" stroke-width="1.4"/><line x1="582.9" y1="-54.8" x2="588.9" y2="-54.8" stroke="rgba(240,231,203,.1)" stroke-width="1.4"/><line x1="216.1" y1="-65.8" x2="224.1" y2="-65.8" stroke="rgba(240,231,203,.16)" stroke-width="1.6"/><line x1="395.9" y1="-65.8" x2="403.9" y2="-65.8" stroke="rgba(240,231,203,.16)" stroke-width="1.6"/><line x1="31.1" y1="-65.8" x2="37.1" y2="-65.8" stroke="rgba(240,231,203,.1)" stroke-width="1.4"/><line x1="582.9" y1="-65.8" x2="588.9" y2="-65.8" stroke="rgba(240,231,203,.1)" stroke-width="1.4"/><line x1="216.1" y1="-76.8" x2="224.1" y2="-76.8" stroke="rgba(240,231,203,.16)" stroke-width="1.6"/><line x1="395.9" y1="-76.8" x2="403.9" y2="-76.8" stroke="rgba(240,231,203,.16)" stroke-width="1.6"/><line x1="31.1" y1="-76.8" x2="37.1" y2="-76.8" stroke="rgba(240,231,203,.1)" stroke-width="1.4"/><line x1="582.9" y1="-76.8" x2="588.9" y2="-76.8" stroke="rgba(240,231,203,.1)" stroke-width="1.4"/><line x1="216.1" y1="-87.8" x2="224.1" y2="-87.8" stroke="rgba(240,231,203,.16)" stroke-width="1.6"/><line x1="395.9" y1="-87.8" x2="403.9" y2="-87.8" stroke="rgba(240,231,203,.16)" stroke-width="1.6"/><line x1="31.1" y1="-87.8" x2="37.1" y2="-87.8" stroke="rgba(240,231,203,.1)" stroke-width="1.4"/><line x1="582.9" y1="-87.8" x2="588.9" y2="-87.8" stroke="rgba(240,231,203,.1)" stroke-width="1.4"/><line x1="216.1" y1="-98.8" x2="224.1" y2="-98.8" stroke="rgba(240,231,203,.16)" stroke-width="1.6"/><line x1="395.9" y1="-98.8" x2="403.9" y2="-98.8" stroke="rgba(240,231,203,.16)" stroke-width="1.6"/><line x1="31.1" y1="-98.8" x2="37.1" y2="-98.8" stroke="rgba(240,231,203,.1)" stroke-width="1.4"/><line x1="582.9" y1="-98.8" x2="588.9" y2="-98.8" stroke="rgba(240,231,203,.1)" stroke-width="1.4"/><line x1="216.1" y1="-109.8" x2="224.1" y2="-109.8" stroke="rgba(240,231,203,.16)" stroke-width="1.6"/><line x1="395.9" y1="-109.8" x2="403.9" y2="-109.8" stroke="rgba(240,231,203,.16)" stroke-width="1.6"/><line x1="31.1" y1="-109.8" x2="37.1" y2="-109.8" stroke="rgba(240,231,203,.1)" stroke-width="1.4"/><line x1="582.9" y1="-109.8" x2="588.9" y2="-109.8" stroke="rgba(240,231,203,.1)" stroke-width="1.4"/><line x1="216.1" y1="-120.8" x2="224.1" y2="-120.8" stroke="rgba(240,231,203,.16)" stroke-width="1.6"/><line x1="395.9" y1="-120.8" x2="403.9" y2="-120.8" stroke="rgba(240,231,203,.16)" stroke-width="1.6"/><line x1="31.1" y1="-120.8" x2="37.1" y2="-120.8" stroke="rgba(240,231,203,.1)" stroke-width="1.4"/><line x1="582.9" y1="-120.8" x2="588.9" y2="-120.8" stroke="rgba(240,231,203,.1)" stroke-width="1.4"/><line x1="216.1" y1="-131.8" x2="224.1" y2="-131.8" stroke="rgba(240,231,203,.16)" stroke-width="1.6"/><line x1="395.9" y1="-131.8" x2="403.9" y2="-131.8" stroke="rgba(240,231,203,.16)" stroke-width="1.6"/><line x1="31.1" y1="-131.8" x2="37.1" y2="-131.8" stroke="rgba(240,231,203,.1)" stroke-width="1.4"/><line x1="582.9" y1="-131.8" x2="588.9" y2="-131.8" stroke="rgba(240,231,203,.1)" stroke-width="1.4"/><line x1="216.1" y1="-142.8" x2="224.1" y2="-142.8" stroke="rgba(240,231,203,.16)" stroke-width="1.6"/><line x1="395.9" y1="-142.8" x2="403.9" y2="-142.8" stroke="rgba(240,231,203,.16)" stroke-width="1.6"/><line x1="31.1" y1="-142.8" x2="37.1" y2="-142.8" stroke="rgba(240,231,203,.1)" stroke-width="1.4"/><line x1="582.9" y1="-142.8" x2="588.9" y2="-142.8" stroke="rgba(240,231,203,.1)" stroke-width="1.4"/><line x1="0" y1="121.2" x2="620" y2="121.2" stroke="rgba(242,181,14,.5)" stroke-width="2"/><line x1="0" y1="231.20000000000002" x2="620" y2="231.20000000000002" stroke="rgba(240,231,203,.42)" stroke-width="1.6"/><circle cx="310" cy="286.20000000000005" r="5.6" fill="#EDEAE2"/><circle cx="332" cy="299.40000000000003" r="6.6" fill="#EDEAE2" stroke="rgba(9,13,20,.65)" stroke-width="1.6"/><circle cx="383.7" cy="255.40000000000003" r="6.6" fill="#EDEAE2" stroke="rgba(9,13,20,.65)" stroke-width="1.6"/><circle cx="131.8" cy="240.00000000000003" r="6.6" fill="#EDEAE2" stroke="rgba(9,13,20,.65)" stroke-width="1.6"/><circle cx="200" cy="255.40000000000003" r="6.6" fill="#EDEAE2" stroke="rgba(9,13,20,.65)" stroke-width="1.6"/><circle cx="365" cy="244.4" r="6.6" fill="#EDEAE2" stroke="rgba(9,13,20,.65)" stroke-width="1.6"/><path d="M273.7 247.70000000000002 L273.7 235.6 M267.7 235.6 L279.7 235.6" fill="none" stroke="#EDEAE2" stroke-width="2.6" stroke-linecap="round"/><circle cx="273.7" cy="247.70000000000002" r="4.6" fill="#0b0f14" stroke="#EDEAE2" stroke-width="2.4"/><path d="M291.3 244.4 L291.3 232.3 M285.3 232.3 L297.3 232.3" fill="none" stroke="#EDEAE2" stroke-width="2.6" stroke-linecap="round"/><circle cx="291.3" cy="244.4" r="4.6" fill="#0b0f14" stroke="#EDEAE2" stroke-width="2.4"/><path d="M310 237.8 L310 225.7 M304 225.7 L316 225.7" fill="none" stroke="#EDEAE2" stroke-width="2.6" stroke-linecap="round"/><circle cx="310" cy="237.8" r="4.6" fill="#0b0f14" stroke="#EDEAE2" stroke-width="2.4"/><path d="M328.7 244.4 L328.7 232.3 M322.7 232.3 L334.7 232.3" fill="none" stroke="#EDEAE2" stroke-width="2.6" stroke-linecap="round"/><circle cx="328.7" cy="244.4" r="4.6" fill="#0b0f14" stroke="#EDEAE2" stroke-width="2.4"/><path d="M346.3 247.70000000000002 L346.3 235.6 M340.3 235.6 L352.3 235.6" fill="none" stroke="#EDEAE2" stroke-width="2.6" stroke-linecap="round"/><circle cx="346.3" cy="247.70000000000002" r="4.6" fill="#0b0f14" stroke="#EDEAE2" stroke-width="2.4"/><text x="310" y="305.2" text-anchor="middle" font-family="Barlow,Segoe UI,system-ui,sans-serif" font-size="12.5" font-weight="800" letter-spacing=".5" fill="rgba(240,231,203,.82)">QB</text><text x="332" y="318.4" text-anchor="middle" font-family="Barlow,Segoe UI,system-ui,sans-serif" font-size="12.5" font-weight="800" letter-spacing=".5" fill="rgba(240,231,203,.82)">RB</text><text x="383.7" y="274.4" text-anchor="middle" font-family="Barlow,Segoe UI,system-ui,sans-serif" font-size="12.5" font-weight="800" letter-spacing=".5" fill="rgba(240,231,203,.82)">TE</text><text x="131.8" y="259.0" text-anchor="middle" font-family="Barlow,Segoe UI,system-ui,sans-serif" font-size="12.5" font-weight="800" letter-spacing=".5" fill="rgba(240,231,203,.82)">WR</text><text x="200" y="274.4" text-anchor="middle" font-family="Barlow,Segoe UI,system-ui,sans-serif" font-size="12.5" font-weight="800" letter-spacing=".5" fill="rgba(240,231,203,.82)">WR</text><text x="365" y="263.4" text-anchor="middle" font-family="Barlow,Segoe UI,system-ui,sans-serif" font-size="12.5" font-weight="800" letter-spacing=".5" fill="rgba(240,231,203,.82)">TE</text></svg>